<mxfile host="app.diagrams.net" modified="2022-06-12T17:37:36.009Z" agent="5.0 (Windows NT 10.0; Win64; x64) AppleWebKit/537.36 (KHTML, like Gecko) Chrome/100.0.4896.127 Safari/537.36 OPR/86.0.4363.70" etag="CcTfJ38Ggbz3psk4jyuJ" version="20.0.0" type="github">
  <diagram id="ZpjsMD74hfa8In4RMTsJ" name="Page-1">
    <mxGraphModel dx="1381" dy="795" grid="1" gridSize="10" guides="1" tooltips="1" connect="1" arrows="1" fold="1" page="1" pageScale="1" pageWidth="827" pageHeight="1169" math="0" shadow="0">
      <root>
        <mxCell id="0" />
        <mxCell id="1" parent="0" />
        <mxCell id="3Z93OovdhG0zFgBrQc0m-4" value="" style="edgeStyle=orthogonalEdgeStyle;rounded=0;orthogonalLoop=1;jettySize=auto;html=1;" edge="1" parent="1" source="3Z93OovdhG0zFgBrQc0m-2" target="3Z93OovdhG0zFgBrQc0m-3">
          <mxGeometry relative="1" as="geometry" />
        </mxCell>
        <mxCell id="3Z93OovdhG0zFgBrQc0m-2" value="&lt;span style=&quot;&quot;&gt;handleEvents&lt;/span&gt;" style="shape=process;whiteSpace=wrap;html=1;backgroundOutline=1;" vertex="1" parent="1">
          <mxGeometry x="520" y="50" width="120" height="60" as="geometry" />
        </mxCell>
        <mxCell id="3Z93OovdhG0zFgBrQc0m-6" value="" style="edgeStyle=orthogonalEdgeStyle;rounded=0;orthogonalLoop=1;jettySize=auto;html=1;" edge="1" parent="1" source="3Z93OovdhG0zFgBrQc0m-3" target="3Z93OovdhG0zFgBrQc0m-5">
          <mxGeometry relative="1" as="geometry" />
        </mxCell>
        <mxCell id="3Z93OovdhG0zFgBrQc0m-8" value="" style="edgeStyle=orthogonalEdgeStyle;rounded=0;orthogonalLoop=1;jettySize=auto;html=1;" edge="1" parent="1" source="3Z93OovdhG0zFgBrQc0m-3" target="3Z93OovdhG0zFgBrQc0m-7">
          <mxGeometry relative="1" as="geometry" />
        </mxCell>
        <mxCell id="3Z93OovdhG0zFgBrQc0m-3" value="&quot;w&quot; pressed" style="rhombus;whiteSpace=wrap;html=1;" vertex="1" parent="1">
          <mxGeometry x="540" y="140" width="80" height="80" as="geometry" />
        </mxCell>
        <mxCell id="3Z93OovdhG0zFgBrQc0m-75" style="edgeStyle=orthogonalEdgeStyle;rounded=0;orthogonalLoop=1;jettySize=auto;html=1;exitX=0.5;exitY=1;exitDx=0;exitDy=0;entryX=0.5;entryY=0;entryDx=0;entryDy=0;" edge="1" parent="1" source="3Z93OovdhG0zFgBrQc0m-5" target="3Z93OovdhG0zFgBrQc0m-7">
          <mxGeometry relative="1" as="geometry">
            <Array as="points">
              <mxPoint x="740" y="220" />
              <mxPoint x="580" y="220" />
            </Array>
          </mxGeometry>
        </mxCell>
        <mxCell id="3Z93OovdhG0zFgBrQc0m-5" value="jump" style="whiteSpace=wrap;html=1;" vertex="1" parent="1">
          <mxGeometry x="680" y="150" width="120" height="60" as="geometry" />
        </mxCell>
        <mxCell id="3Z93OovdhG0zFgBrQc0m-10" value="" style="edgeStyle=orthogonalEdgeStyle;rounded=0;orthogonalLoop=1;jettySize=auto;html=1;" edge="1" parent="1" source="3Z93OovdhG0zFgBrQc0m-7" target="3Z93OovdhG0zFgBrQc0m-9">
          <mxGeometry relative="1" as="geometry" />
        </mxCell>
        <mxCell id="3Z93OovdhG0zFgBrQc0m-12" value="" style="edgeStyle=orthogonalEdgeStyle;rounded=0;orthogonalLoop=1;jettySize=auto;html=1;" edge="1" parent="1" source="3Z93OovdhG0zFgBrQc0m-7" target="3Z93OovdhG0zFgBrQc0m-11">
          <mxGeometry relative="1" as="geometry" />
        </mxCell>
        <mxCell id="3Z93OovdhG0zFgBrQc0m-7" value="&quot;s&quot; pressed" style="rhombus;whiteSpace=wrap;html=1;" vertex="1" parent="1">
          <mxGeometry x="540" y="240" width="80" height="80" as="geometry" />
        </mxCell>
        <mxCell id="3Z93OovdhG0zFgBrQc0m-78" style="edgeStyle=orthogonalEdgeStyle;rounded=0;orthogonalLoop=1;jettySize=auto;html=1;exitX=0.5;exitY=1;exitDx=0;exitDy=0;" edge="1" parent="1" source="3Z93OovdhG0zFgBrQc0m-9">
          <mxGeometry relative="1" as="geometry">
            <mxPoint x="580" y="340" as="targetPoint" />
            <Array as="points">
              <mxPoint x="740" y="320" />
              <mxPoint x="580" y="320" />
            </Array>
          </mxGeometry>
        </mxCell>
        <mxCell id="3Z93OovdhG0zFgBrQc0m-9" value="crouch" style="whiteSpace=wrap;html=1;" vertex="1" parent="1">
          <mxGeometry x="680" y="250" width="120" height="60" as="geometry" />
        </mxCell>
        <mxCell id="3Z93OovdhG0zFgBrQc0m-14" value="" style="edgeStyle=orthogonalEdgeStyle;rounded=0;orthogonalLoop=1;jettySize=auto;html=1;" edge="1" parent="1" source="3Z93OovdhG0zFgBrQc0m-11" target="3Z93OovdhG0zFgBrQc0m-13">
          <mxGeometry relative="1" as="geometry" />
        </mxCell>
        <mxCell id="3Z93OovdhG0zFgBrQc0m-16" value="" style="edgeStyle=orthogonalEdgeStyle;rounded=0;orthogonalLoop=1;jettySize=auto;html=1;" edge="1" parent="1" source="3Z93OovdhG0zFgBrQc0m-11" target="3Z93OovdhG0zFgBrQc0m-15">
          <mxGeometry relative="1" as="geometry" />
        </mxCell>
        <mxCell id="3Z93OovdhG0zFgBrQc0m-11" value="&quot;a&quot; pressed" style="rhombus;whiteSpace=wrap;html=1;" vertex="1" parent="1">
          <mxGeometry x="540" y="340" width="80" height="80" as="geometry" />
        </mxCell>
        <mxCell id="3Z93OovdhG0zFgBrQc0m-79" style="edgeStyle=orthogonalEdgeStyle;rounded=0;orthogonalLoop=1;jettySize=auto;html=1;exitX=0.5;exitY=1;exitDx=0;exitDy=0;" edge="1" parent="1" source="3Z93OovdhG0zFgBrQc0m-13">
          <mxGeometry relative="1" as="geometry">
            <mxPoint x="580" y="440" as="targetPoint" />
            <Array as="points">
              <mxPoint x="740" y="420" />
              <mxPoint x="580" y="420" />
            </Array>
          </mxGeometry>
        </mxCell>
        <mxCell id="3Z93OovdhG0zFgBrQc0m-13" value="move left" style="whiteSpace=wrap;html=1;" vertex="1" parent="1">
          <mxGeometry x="680" y="350" width="120" height="60" as="geometry" />
        </mxCell>
        <mxCell id="3Z93OovdhG0zFgBrQc0m-18" value="" style="edgeStyle=orthogonalEdgeStyle;rounded=0;orthogonalLoop=1;jettySize=auto;html=1;" edge="1" parent="1" source="3Z93OovdhG0zFgBrQc0m-15" target="3Z93OovdhG0zFgBrQc0m-17">
          <mxGeometry relative="1" as="geometry" />
        </mxCell>
        <mxCell id="3Z93OovdhG0zFgBrQc0m-20" value="" style="edgeStyle=orthogonalEdgeStyle;rounded=0;orthogonalLoop=1;jettySize=auto;html=1;" edge="1" parent="1" source="3Z93OovdhG0zFgBrQc0m-15" target="3Z93OovdhG0zFgBrQc0m-19">
          <mxGeometry relative="1" as="geometry" />
        </mxCell>
        <mxCell id="3Z93OovdhG0zFgBrQc0m-15" value="&quot;d&quot; pressed" style="rhombus;whiteSpace=wrap;html=1;" vertex="1" parent="1">
          <mxGeometry x="540" y="440" width="80" height="80" as="geometry" />
        </mxCell>
        <mxCell id="3Z93OovdhG0zFgBrQc0m-80" style="edgeStyle=orthogonalEdgeStyle;rounded=0;orthogonalLoop=1;jettySize=auto;html=1;exitX=0.5;exitY=1;exitDx=0;exitDy=0;entryX=0.5;entryY=0;entryDx=0;entryDy=0;" edge="1" parent="1" source="3Z93OovdhG0zFgBrQc0m-17" target="3Z93OovdhG0zFgBrQc0m-19">
          <mxGeometry relative="1" as="geometry" />
        </mxCell>
        <mxCell id="3Z93OovdhG0zFgBrQc0m-17" value="move right" style="whiteSpace=wrap;html=1;" vertex="1" parent="1">
          <mxGeometry x="680" y="450" width="120" height="60" as="geometry" />
        </mxCell>
        <mxCell id="3Z93OovdhG0zFgBrQc0m-22" value="" style="edgeStyle=orthogonalEdgeStyle;rounded=0;orthogonalLoop=1;jettySize=auto;html=1;" edge="1" parent="1" source="3Z93OovdhG0zFgBrQc0m-19" target="3Z93OovdhG0zFgBrQc0m-21">
          <mxGeometry relative="1" as="geometry" />
        </mxCell>
        <mxCell id="3Z93OovdhG0zFgBrQc0m-73" style="edgeStyle=orthogonalEdgeStyle;rounded=0;orthogonalLoop=1;jettySize=auto;html=1;entryX=0.5;entryY=0;entryDx=0;entryDy=0;entryPerimeter=0;" edge="1" parent="1" source="3Z93OovdhG0zFgBrQc0m-19" target="3Z93OovdhG0zFgBrQc0m-72">
          <mxGeometry relative="1" as="geometry" />
        </mxCell>
        <mxCell id="3Z93OovdhG0zFgBrQc0m-19" value="&quot;esc&quot; pressed" style="rhombus;whiteSpace=wrap;html=1;" vertex="1" parent="1">
          <mxGeometry x="540" y="585" width="80" height="75" as="geometry" />
        </mxCell>
        <mxCell id="3Z93OovdhG0zFgBrQc0m-74" style="edgeStyle=orthogonalEdgeStyle;rounded=0;orthogonalLoop=1;jettySize=auto;html=1;entryX=1;entryY=0.5;entryDx=0;entryDy=0;entryPerimeter=0;exitX=0.5;exitY=1;exitDx=0;exitDy=0;" edge="1" parent="1" source="3Z93OovdhG0zFgBrQc0m-21" target="3Z93OovdhG0zFgBrQc0m-72">
          <mxGeometry relative="1" as="geometry" />
        </mxCell>
        <mxCell id="3Z93OovdhG0zFgBrQc0m-21" value="open/close Pause Menu" style="whiteSpace=wrap;html=1;" vertex="1" parent="1">
          <mxGeometry x="680" y="592.5" width="120" height="60" as="geometry" />
        </mxCell>
        <mxCell id="3Z93OovdhG0zFgBrQc0m-26" value="" style="edgeStyle=orthogonalEdgeStyle;rounded=0;orthogonalLoop=1;jettySize=auto;html=1;" edge="1" parent="1" source="3Z93OovdhG0zFgBrQc0m-23" target="3Z93OovdhG0zFgBrQc0m-33">
          <mxGeometry relative="1" as="geometry">
            <mxPoint x="120" y="270" as="targetPoint" />
          </mxGeometry>
        </mxCell>
        <mxCell id="3Z93OovdhG0zFgBrQc0m-23" value="handleEvents" style="rounded=0;whiteSpace=wrap;html=1;" vertex="1" parent="1">
          <mxGeometry x="190" y="190" width="120" height="60" as="geometry" />
        </mxCell>
        <mxCell id="3Z93OovdhG0zFgBrQc0m-55" style="edgeStyle=orthogonalEdgeStyle;rounded=0;orthogonalLoop=1;jettySize=auto;html=1;exitX=0.5;exitY=1;exitDx=0;exitDy=0;entryX=1;entryY=0.5;entryDx=0;entryDy=0;entryPerimeter=0;" edge="1" parent="1" source="3Z93OovdhG0zFgBrQc0m-25" target="3Z93OovdhG0zFgBrQc0m-53">
          <mxGeometry relative="1" as="geometry" />
        </mxCell>
        <mxCell id="3Z93OovdhG0zFgBrQc0m-25" value="drawPauseMenu" style="rounded=0;whiteSpace=wrap;html=1;" vertex="1" parent="1">
          <mxGeometry x="340" y="305" width="120" height="60" as="geometry" />
        </mxCell>
        <mxCell id="3Z93OovdhG0zFgBrQc0m-54" style="edgeStyle=orthogonalEdgeStyle;rounded=0;orthogonalLoop=1;jettySize=auto;html=1;exitX=0.5;exitY=1;exitDx=0;exitDy=0;entryX=0.5;entryY=0;entryDx=0;entryDy=0;entryPerimeter=0;" edge="1" parent="1" source="3Z93OovdhG0zFgBrQc0m-27" target="3Z93OovdhG0zFgBrQc0m-53">
          <mxGeometry relative="1" as="geometry" />
        </mxCell>
        <mxCell id="3Z93OovdhG0zFgBrQc0m-27" value="drawFrame" style="rounded=0;whiteSpace=wrap;html=1;" vertex="1" parent="1">
          <mxGeometry x="190" y="430" width="120" height="60" as="geometry" />
        </mxCell>
        <mxCell id="3Z93OovdhG0zFgBrQc0m-45" style="edgeStyle=orthogonalEdgeStyle;rounded=0;orthogonalLoop=1;jettySize=auto;html=1;exitX=1;exitY=0.5;exitDx=0;exitDy=0;exitPerimeter=0;entryX=0;entryY=0.5;entryDx=0;entryDy=0;" edge="1" parent="1" source="3Z93OovdhG0zFgBrQc0m-33" target="3Z93OovdhG0zFgBrQc0m-25">
          <mxGeometry relative="1" as="geometry" />
        </mxCell>
        <mxCell id="3Z93OovdhG0zFgBrQc0m-46" style="edgeStyle=orthogonalEdgeStyle;rounded=0;orthogonalLoop=1;jettySize=auto;html=1;exitX=0.5;exitY=1;exitDx=0;exitDy=0;exitPerimeter=0;entryX=0.5;entryY=0;entryDx=0;entryDy=0;" edge="1" parent="1" source="3Z93OovdhG0zFgBrQc0m-33" target="3Z93OovdhG0zFgBrQc0m-27">
          <mxGeometry relative="1" as="geometry" />
        </mxCell>
        <mxCell id="3Z93OovdhG0zFgBrQc0m-33" value="&lt;span style=&quot;&quot;&gt;IF pause menu&lt;/span&gt;&lt;br style=&quot;&quot;&gt;&lt;span style=&quot;&quot;&gt;is open&lt;/span&gt;" style="strokeWidth=2;html=1;shape=mxgraph.flowchart.decision;whiteSpace=wrap;" vertex="1" parent="1">
          <mxGeometry x="195" y="280" width="110" height="110" as="geometry" />
        </mxCell>
        <mxCell id="3Z93OovdhG0zFgBrQc0m-40" style="edgeStyle=orthogonalEdgeStyle;rounded=0;orthogonalLoop=1;jettySize=auto;html=1;exitX=0.5;exitY=1;exitDx=0;exitDy=0;exitPerimeter=0;entryX=0.5;entryY=0;entryDx=0;entryDy=0;" edge="1" parent="1" source="3Z93OovdhG0zFgBrQc0m-39" target="3Z93OovdhG0zFgBrQc0m-23">
          <mxGeometry relative="1" as="geometry" />
        </mxCell>
        <mxCell id="3Z93OovdhG0zFgBrQc0m-39" value="&lt;span style=&quot;&quot;&gt;gameloop Begin&lt;/span&gt;" style="strokeWidth=2;html=1;shape=mxgraph.flowchart.terminator;whiteSpace=wrap;" vertex="1" parent="1">
          <mxGeometry x="200" y="70" width="100" height="60" as="geometry" />
        </mxCell>
        <mxCell id="3Z93OovdhG0zFgBrQc0m-57" style="edgeStyle=orthogonalEdgeStyle;rounded=0;orthogonalLoop=1;jettySize=auto;html=1;entryX=0.5;entryY=0;entryDx=0;entryDy=0;entryPerimeter=0;" edge="1" parent="1" source="3Z93OovdhG0zFgBrQc0m-53" target="3Z93OovdhG0zFgBrQc0m-56">
          <mxGeometry relative="1" as="geometry" />
        </mxCell>
        <mxCell id="3Z93OovdhG0zFgBrQc0m-66" style="edgeStyle=orthogonalEdgeStyle;rounded=0;orthogonalLoop=1;jettySize=auto;html=1;exitX=0;exitY=0.5;exitDx=0;exitDy=0;exitPerimeter=0;entryX=0;entryY=0.5;entryDx=0;entryDy=0;" edge="1" parent="1" source="3Z93OovdhG0zFgBrQc0m-53" target="3Z93OovdhG0zFgBrQc0m-23">
          <mxGeometry relative="1" as="geometry">
            <Array as="points">
              <mxPoint x="130" y="595" />
              <mxPoint x="130" y="220" />
            </Array>
          </mxGeometry>
        </mxCell>
        <mxCell id="3Z93OovdhG0zFgBrQc0m-53" value="If completed level or exited game" style="strokeWidth=2;html=1;shape=mxgraph.flowchart.decision;whiteSpace=wrap;" vertex="1" parent="1">
          <mxGeometry x="190" y="535" width="120" height="120" as="geometry" />
        </mxCell>
        <mxCell id="3Z93OovdhG0zFgBrQc0m-56" value="Back to Menu" style="strokeWidth=2;html=1;shape=mxgraph.flowchart.terminator;whiteSpace=wrap;" vertex="1" parent="1">
          <mxGeometry x="200" y="700" width="100" height="60" as="geometry" />
        </mxCell>
        <mxCell id="3Z93OovdhG0zFgBrQc0m-58" value="Yes" style="text;html=1;strokeColor=none;fillColor=none;align=center;verticalAlign=middle;whiteSpace=wrap;rounded=0;" vertex="1" parent="1">
          <mxGeometry x="280" y="300" width="60" height="30" as="geometry" />
        </mxCell>
        <mxCell id="3Z93OovdhG0zFgBrQc0m-59" value="Yes" style="text;html=1;strokeColor=none;fillColor=none;align=center;verticalAlign=middle;whiteSpace=wrap;rounded=0;" vertex="1" parent="1">
          <mxGeometry x="250" y="665" width="60" height="30" as="geometry" />
        </mxCell>
        <mxCell id="3Z93OovdhG0zFgBrQc0m-60" value="Yes" style="text;html=1;strokeColor=none;fillColor=none;align=center;verticalAlign=middle;whiteSpace=wrap;rounded=0;" vertex="1" parent="1">
          <mxGeometry x="610" y="150" width="60" height="30" as="geometry" />
        </mxCell>
        <mxCell id="3Z93OovdhG0zFgBrQc0m-61" value="Yes" style="text;html=1;strokeColor=none;fillColor=none;align=center;verticalAlign=middle;whiteSpace=wrap;rounded=0;" vertex="1" parent="1">
          <mxGeometry x="610" y="240" width="60" height="30" as="geometry" />
        </mxCell>
        <mxCell id="3Z93OovdhG0zFgBrQc0m-62" value="Yes" style="text;html=1;strokeColor=none;fillColor=none;align=center;verticalAlign=middle;whiteSpace=wrap;rounded=0;" vertex="1" parent="1">
          <mxGeometry x="610" y="335" width="60" height="30" as="geometry" />
        </mxCell>
        <mxCell id="3Z93OovdhG0zFgBrQc0m-63" value="Yes" style="text;html=1;strokeColor=none;fillColor=none;align=center;verticalAlign=middle;whiteSpace=wrap;rounded=0;" vertex="1" parent="1">
          <mxGeometry x="610" y="440" width="60" height="30" as="geometry" />
        </mxCell>
        <mxCell id="3Z93OovdhG0zFgBrQc0m-64" value="Yes" style="text;html=1;strokeColor=none;fillColor=none;align=center;verticalAlign=middle;whiteSpace=wrap;rounded=0;" vertex="1" parent="1">
          <mxGeometry x="610" y="585" width="60" height="30" as="geometry" />
        </mxCell>
        <mxCell id="3Z93OovdhG0zFgBrQc0m-65" value="No" style="text;html=1;strokeColor=none;fillColor=none;align=center;verticalAlign=middle;whiteSpace=wrap;rounded=0;" vertex="1" parent="1">
          <mxGeometry x="250" y="390" width="60" height="30" as="geometry" />
        </mxCell>
        <mxCell id="3Z93OovdhG0zFgBrQc0m-67" value="No" style="text;html=1;strokeColor=none;fillColor=none;align=center;verticalAlign=middle;whiteSpace=wrap;rounded=0;" vertex="1" parent="1">
          <mxGeometry x="135" y="565" width="60" height="30" as="geometry" />
        </mxCell>
        <mxCell id="3Z93OovdhG0zFgBrQc0m-68" value="No" style="text;html=1;strokeColor=none;fillColor=none;align=center;verticalAlign=middle;whiteSpace=wrap;rounded=0;" vertex="1" parent="1">
          <mxGeometry x="510" y="210" width="60" height="30" as="geometry" />
        </mxCell>
        <mxCell id="3Z93OovdhG0zFgBrQc0m-69" value="No" style="text;html=1;strokeColor=none;fillColor=none;align=center;verticalAlign=middle;whiteSpace=wrap;rounded=0;" vertex="1" parent="1">
          <mxGeometry x="500" y="310" width="60" height="30" as="geometry" />
        </mxCell>
        <mxCell id="3Z93OovdhG0zFgBrQc0m-70" value="No" style="text;html=1;strokeColor=none;fillColor=none;align=center;verticalAlign=middle;whiteSpace=wrap;rounded=0;" vertex="1" parent="1">
          <mxGeometry x="500" y="410" width="60" height="30" as="geometry" />
        </mxCell>
        <mxCell id="3Z93OovdhG0zFgBrQc0m-71" value="No" style="text;html=1;strokeColor=none;fillColor=none;align=center;verticalAlign=middle;whiteSpace=wrap;rounded=0;" vertex="1" parent="1">
          <mxGeometry x="500" y="530" width="60" height="30" as="geometry" />
        </mxCell>
        <mxCell id="3Z93OovdhG0zFgBrQc0m-72" value="End Of HandleEvents" style="strokeWidth=2;html=1;shape=mxgraph.flowchart.terminator;whiteSpace=wrap;" vertex="1" parent="1">
          <mxGeometry x="530" y="710" width="100" height="60" as="geometry" />
        </mxCell>
      </root>
    </mxGraphModel>
  </diagram>
</mxfile>
